<svg width="59" height="63" viewBox="0 0 59 63" fill="none" xmlns="http://www.w3.org/2000/svg">
<path d="M29.6734 62.8223C45.6125 62.8223 58.5336 50.2319 58.5336 34.7009C58.5336 19.1699 45.6125 6.57953 29.6734 6.57953C13.7344 6.57953 0.813232 19.1699 0.813232 34.7009C0.813232 50.2319 13.7344 62.8223 29.6734 62.8223Z" fill="#D8D8D8"/>
<path fill-rule="evenodd" clip-rule="evenodd" d="M25.3978 3.45493H33.949V7.62105H25.3978V3.45493Z" fill="#979797"/>
<path d="M34.4835 0.330322H24.8634C23.9779 0.330322 23.2601 1.02979 23.2601 1.89262C23.2601 2.75545 23.9779 3.45492 24.8634 3.45492H34.4835C35.369 3.45492 36.0868 2.75545 36.0868 1.89262C36.0868 1.02979 35.369 0.330322 34.4835 0.330322Z" fill="#D8D8D8"/>
<path d="M52.7544 9.9645L44.4232 5.27761C43.6563 4.84619 42.6757 5.10221 42.233 5.84945C41.7902 6.59669 42.0529 7.55217 42.8198 7.98359L51.151 12.6705C51.9179 13.1019 52.8985 12.8459 53.3412 12.0986C53.784 11.3514 53.5212 10.3959 52.7544 9.9645Z" fill="#979797"/>
<path d="M29.6734 57.6146C42.6608 57.6146 53.1891 47.3558 53.1891 34.7009C53.1891 22.046 42.6608 11.7872 29.6734 11.7872C16.6861 11.7872 6.15771 22.046 6.15771 34.7009C6.15771 47.3558 16.6861 57.6146 29.6734 57.6146Z" fill="#F8F8F8"/>
<path fill-rule="evenodd" clip-rule="evenodd" d="M29.6734 15.9533C40.3557 15.9533 49.0154 24.3913 49.0154 34.8001C49.0154 35.1161 49.0074 35.4302 48.9916 35.7424H29.6734V15.9533Z" fill="#DE5454"/>
</svg>
