<svg width="83" height="63" viewBox="0 0 83 63" fill="none" xmlns="http://www.w3.org/2000/svg">
<path fill-rule="evenodd" clip-rule="evenodd" d="M21.9832 38.3403L57.4028 18.2796L61.2013 24.6238L25.7817 44.6845L21.9832 38.3403Z" fill="#D8D8D8"/>
<path d="M32.2808 33.9242L34.8119 38.1495M37.6448 30.8877L40.1758 35.113M43.0087 27.8511L45.5397 32.0764M48.3726 24.8146L50.9037 29.0399" stroke="#979797" stroke-width="2.38765" stroke-linecap="square"/>
<path d="M14.7832 31.231L11.586 33.0407C10.4088 33.707 10.0173 35.1866 10.7117 36.3455L22.0267 55.2315C22.721 56.3904 24.2382 56.7897 25.4154 56.1234L28.6126 54.3138C29.7898 53.6475 30.1813 52.1678 29.4869 51.0089L18.1719 32.123C17.4776 30.9641 15.9604 30.5647 14.7832 31.231Z" fill="#595959"/>
<path d="M57.7691 6.84064L54.5719 8.6503C53.3947 9.31659 53.0032 10.7962 53.6976 11.9552L65.0126 30.8411C65.7069 32 67.2241 32.3994 68.4013 31.7331L71.5985 29.9234C72.7757 29.2571 73.1672 27.7775 72.4728 26.6185L61.1578 7.73263C60.4635 6.5737 58.9463 6.17434 57.7691 6.84064Z" fill="#595959"/>
<path d="M9.77655 39.6885L7.64313 40.8957C6.46487 41.5623 6.07309 43.0428 6.76806 44.2024L13.0599 54.7003C13.7548 55.8599 15.2734 56.2595 16.4516 55.5928L18.5851 54.3857C19.7633 53.719 20.1551 52.2386 19.4601 51.079L13.1683 40.581C12.4734 39.4215 10.9548 39.0219 9.77655 39.6885Z" fill="#979797"/>
<path d="M66.7328 7.3713L64.5994 8.57841C63.4212 9.24508 63.0294 10.7255 63.7243 11.8851L70.0161 22.3831C70.7111 23.5426 72.2297 23.9422 73.4079 23.2755L75.5414 22.0684C76.7196 21.4018 77.1114 19.9213 76.4164 18.7617L70.1246 8.26379C69.4296 7.10421 67.9111 6.70464 66.7328 7.3713Z" fill="#979797"/>
<path fill-rule="evenodd" clip-rule="evenodd" d="M5.86356 47.5345L7.99457 46.3286L11.7675 52.6249L9.63651 53.8309L5.86356 47.5345Z" fill="#D8D8D8"/>
<path fill-rule="evenodd" clip-rule="evenodd" d="M71.417 10.3392L73.548 9.13322L77.321 15.4296L75.19 16.6356L71.417 10.3392Z" fill="#D8D8D8"/>
</svg>
