<svg width="63" height="61" viewBox="0 0 63 61" fill="none" xmlns="http://www.w3.org/2000/svg">
<path d="M28.9203 56.3764C44.5997 56.3764 57.3104 43.9911 57.3104 28.7131C57.3104 13.4351 44.5997 1.04982 28.9203 1.04982C13.2409 1.04982 0.530235 13.4351 0.530235 28.7131C0.530235 43.9911 13.2409 56.3764 28.9203 56.3764Z" fill="#47A3CA"/>
<mask id="mask0_310_558" style="mask-type:luminance" maskUnits="userSpaceOnUse" x="0" y="1" width="62" height="60">
<path d="M31.0361 60.4997C47.8841 60.4997 61.5421 47.1914 61.5421 30.7748C61.5421 14.3581 47.8841 1.04982 31.0361 1.04982C14.1882 1.04982 0.530235 14.3581 0.530235 30.7748C0.530235 47.1914 14.1882 60.4997 31.0361 60.4997Z" fill="white"/>
</mask>
<g mask="url(#mask0_310_558)">
<path fill-rule="evenodd" clip-rule="evenodd" d="M45.7036 21.4113C45.7036 21.4113 39.4599 18.9284 37.6001 20.1698C35.7404 21.4113 36.7339 27.2731 36.7339 27.2731C36.7339 27.2731 33.9622 31.1438 35.348 33.1796C36.7339 35.2153 40.5835 34.5155 42.7463 36.3112C44.909 38.1069 44.0105 41.3297 44.0105 41.3297L43.4873 45.0924C43.4873 45.0924 49.2803 42.563 50.9495 38.9188C52.6187 35.2747 52.078 29.5614 52.078 29.5614L55.4593 26.5743L58.4327 17.1786L47.9986 13.8905L46.849 8.87907L39.3875 10.9399L38.7132 16.4058L44.4441 18.2547L45.7036 21.4113ZM-0.874256 24.5796C-0.874256 24.5796 1.23619 23.2685 1.51787 23.2476C3.67891 23.0876 11.2094 23.5352 13.1783 20.7538C15.4039 17.6099 17.2591 13.4467 17.2591 13.4467L17.1846 10.2435L5.54762 7.4608L-0.874256 24.5796ZM17.4199 50.7399L18.4058 40.1305L10.4853 34.2222C10.4853 34.2222 10.0279 29.494 15.7769 28.8259C21.5259 28.1577 25.068 31.6226 25.068 31.6226C25.068 31.6226 27.3504 35.0642 26.4992 37.4021C25.648 39.7401 23.4458 43.2412 23.4458 43.2412C23.4458 43.2412 23.2711 47.2186 21.7785 49.0761C20.2859 50.9335 17.4199 50.7399 17.4199 50.7399Z" fill="#2CC669"/>
</g>
<path fill-rule="evenodd" clip-rule="evenodd" d="M58.0485 42.3571V4.70526C58.0485 2.39554 56.1299 0.527863 53.7632 0.527863C51.4014 0.527863 49.478 2.39815 49.478 4.70526V42.3571C46.9162 43.8011 45.1927 46.4999 45.1927 49.5911C45.1927 54.2033 49.0298 57.9422 53.7632 57.9422C58.4967 57.9422 62.3338 54.2033 62.3338 49.5911C62.3338 46.4999 60.6103 43.8011 58.0485 42.3571Z" fill="#D8D8D8"/>
<path d="M53.7633 55.8545C57.3134 55.8545 60.1912 53.0502 60.1912 49.5911C60.1912 46.1319 57.3134 43.3277 53.7633 43.3277C50.2132 43.3277 47.3354 46.1319 47.3354 49.5911C47.3354 53.0502 50.2132 55.8545 53.7633 55.8545Z" fill="#E43535"/>
<path fill-rule="evenodd" clip-rule="evenodd" d="M51.6206 14.0985H55.9059V45.4155H51.6206V14.0985Z" fill="#E43535"/>
</svg>
