<svg width="68" height="46" viewBox="0 0 68 46" fill="none" xmlns="http://www.w3.org/2000/svg">
<path fill-rule="evenodd" clip-rule="evenodd" d="M4.21704 25.6219H16.8762V44.1299C16.8762 44.6946 16.3954 45.1524 15.8186 45.1524H5.27458C4.69052 45.1524 4.21704 44.6889 4.21704 44.1299V25.6219Z" fill="#595959"/>
<path fill-rule="evenodd" clip-rule="evenodd" d="M50.6339 25.6219H63.293V44.1299C63.293 44.6946 62.8122 45.1524 62.2355 45.1524H51.6914C51.1073 45.1524 50.6339 44.6889 50.6339 44.1299V25.6219Z" fill="#595959"/>
<path fill-rule="evenodd" clip-rule="evenodd" d="M13.0479 7.05235C13.4143 5.38622 15.0994 3.73661 16.8158 3.41594C16.8158 3.41594 22.1508 1.97971 33.755 1.97971C45.3592 1.97971 50.7102 3.41873 50.7102 3.41873C52.4159 3.75939 54.0964 5.38941 54.4621 7.05235L56.9634 18.4265H10.5466L13.0479 7.05235Z" fill="#B4DFFB" stroke="#5B68C0" stroke-width="2.02546" stroke-linecap="round"/>
<path fill-rule="evenodd" clip-rule="evenodd" d="M3.91934 25.5937C3.50113 20.4999 7.41599 16.3706 12.6553 16.3706H54.8548C60.0977 16.3706 64.0089 20.4994 63.5907 25.5937L62.6587 36.9454C62.4264 39.7749 59.8987 41.8015 56.9936 41.5052C56.9936 41.5052 47.9966 40.2841 33.755 40.2841C19.5135 40.2841 10.5037 41.5064 10.5037 41.5064C7.61428 41.8169 5.08286 39.7655 4.85133 36.9454L3.91934 25.5937Z" fill="#5B68C0"/>
<path d="M40.0846 27.6777H27.4254C25.6776 27.6777 24.2607 29.0584 24.2607 30.7615V32.8173C24.2607 34.5205 25.6776 35.9011 27.4254 35.9011H40.0846C41.8324 35.9011 43.2494 34.5205 43.2494 32.8173V30.7615C43.2494 29.0584 41.8324 27.6777 40.0846 27.6777Z" fill="#0A3586"/>
<path fill-rule="evenodd" clip-rule="evenodd" d="M9.49161 34.8732H21.0958V36.929H9.49161V34.8732Z" fill="#FCC24C"/>
<path fill-rule="evenodd" clip-rule="evenodd" d="M47.469 34.8732H59.0732V36.929H47.469V34.8732Z" fill="#FCC24C"/>
<path fill-rule="evenodd" clip-rule="evenodd" d="M7.72726 27.6414C7.53649 26.5261 8.31185 25.7867 9.45644 25.9895L16.9114 27.3102C18.0572 27.5132 18.986 28.5903 18.986 29.7336C18.986 30.869 18.0499 31.7895 16.8766 31.7895H10.5462C9.3812 31.7895 8.28111 30.8794 8.09135 29.77L7.72726 27.6414Z" fill="#FCC24C"/>
<path fill-rule="evenodd" clip-rule="evenodd" d="M59.7828 27.6414C59.9735 26.5261 59.1982 25.7867 58.0536 25.9895L50.5986 27.3102C49.4528 27.5132 48.524 28.5903 48.524 29.7336C48.524 30.869 49.4602 31.7895 50.6334 31.7895H56.9638C58.1288 31.7895 59.2289 30.8794 59.4187 29.77L59.7828 27.6414Z" fill="#FCC24C"/>
<path fill-rule="evenodd" clip-rule="evenodd" d="M58.0184 12.8068C58.0184 11.6725 58.9287 10.9995 60.0551 11.3044L67.5127 13.3229V14.8695C67.5127 16.0023 66.5676 16.9206 65.4056 16.9206H58.0184V12.8068Z" fill="#5B68C0"/>
<path fill-rule="evenodd" clip-rule="evenodd" d="M9.49168 12.8068C9.49168 11.6725 8.58133 10.9995 7.45491 11.3044L-0.00266552 13.3229V14.8695C-0.00266552 16.0023 0.9424 16.9206 2.10444 16.9206H9.49168V12.8068Z" fill="#5B68C0"/>
<path fill-rule="evenodd" clip-rule="evenodd" d="M28.4804 16.3685C28.4804 15.2342 29.4166 14.3148 30.5898 14.3148H36.9202C38.0852 14.3148 39.0297 15.2381 39.0297 16.3685V20.4823H28.4804V16.3685Z" fill="#5B68C0"/>
</svg>
