<svg width="44" height="57" viewBox="0 0 44 57" fill="none" xmlns="http://www.w3.org/2000/svg">
<path fill-rule="evenodd" clip-rule="evenodd" d="M0.431908 2.57794C0.431908 1.47452 1.35131 0.580017 2.48186 0.580017H36.1727L43.6404 7.59106V54.7145C43.6404 55.8202 42.7179 56.7165 41.5854 56.7165H2.48687C1.35195 56.7165 0.431908 55.812 0.431908 54.7186V2.57794Z" fill="#5B68C0"/>
<path fill-rule="evenodd" clip-rule="evenodd" d="M6.60434 53.208C6.60434 51.2703 8.22022 49.6995 10.2051 49.6995H33.8667C35.8554 49.6995 37.4675 51.2742 37.4675 53.208V56.7165H6.60434V53.208Z" fill="#5EA7FF"/>
<path d="M37.468 7.59714H6.60478C5.46843 7.59714 4.54724 8.49475 4.54724 9.60201V22.6337C4.54724 23.7409 5.46843 24.6386 6.60478 24.6386H37.468C38.6043 24.6386 39.5255 23.7409 39.5255 22.6337V9.60201C39.5255 8.49475 38.6043 7.59714 37.468 7.59714Z" fill="#FFDD95"/>
<path d="M11.7483 10.6043V21.6311M7.63317 10.6043V21.6311M15.8634 10.6043V21.6311M19.9785 10.6043V21.6311M24.0935 10.6043V21.6311M28.2086 10.6043V21.6311M32.3237 10.6043V21.6311M36.4388 10.6043V21.6311" stroke="#ED9111" stroke-width="2.9694" stroke-linecap="round" stroke-linejoin="round"/>
</svg>
