<svg width="52" height="59" viewBox="0 0 52 59" fill="none" xmlns="http://www.w3.org/2000/svg">
<path fill-rule="evenodd" clip-rule="evenodd" d="M26.0681 5.68221H43.0854C46.6074 5.68221 49.4625 8.47025 49.4625 11.9058V37.7965C49.4625 41.2337 46.6056 44.0201 43.0854 44.0201H26.0681V5.68221Z" stroke="#979797" stroke-width="4.08343" stroke-linecap="round"/>
<path fill-rule="evenodd" clip-rule="evenodd" d="M0.5466 0.501343H40.9551L37.9925 54.3882C37.8668 56.6736 35.8589 58.5263 33.5131 58.5263H13.3056C10.9573 58.5263 8.95177 56.6656 8.82664 54.3802L6.19102 6.24556L0.5466 0.501343Z" fill="#D8D8D8"/>
<path d="M12.2438 16.0437H19.6875M12.2438 21.2245H19.6875M12.2438 26.4053H19.6875M12.2438 31.5861H19.6875M12.2438 36.7669H19.6875M12.2438 41.9477H19.6875" stroke="#979797" stroke-width="2.04171" stroke-linecap="square"/>
</svg>
