<svg width="67" height="56" viewBox="0 0 67 56" fill="none" xmlns="http://www.w3.org/2000/svg">
<path d="M33.6325 16.3437C33.6325 16.3437 30.3731 7.82999 41.8153 1.52036" stroke="#BD7575" stroke-width="2.14443" stroke-linecap="round"/>
<path fill-rule="evenodd" clip-rule="evenodd" d="M32.9918 15.559C30.248 12.4967 26.2121 10.562 21.7125 10.562C13.4461 10.562 6.74481 17.0918 6.74481 25.1466C6.74481 33.2014 15.9952 55.3748 24.2616 55.3748C26.1072 55.3748 30.431 54.3654 32.9918 52.5989C35.5526 54.3654 39.8764 55.3748 41.722 55.3748C49.9884 55.3748 59.2388 33.2014 59.2388 25.1466C59.2388 17.0918 52.5375 10.562 44.2711 10.562C39.7715 10.562 35.7356 12.4967 32.9918 15.559Z" fill="#E43535"/>
<path fill-rule="evenodd" clip-rule="evenodd" d="M0.813232 33.0811H66.7099V43.9641H0.813232V33.0811Z" fill="#FCC24C"/>
<path d="M16.4497 34.1694V38.5226M27.6187 34.1694V38.5226M22.0342 34.1694V35.2577M33.2031 34.1694V35.2577M38.7876 34.1694V38.5226M44.372 34.1694V35.2577M49.9565 34.1694V38.5226M55.541 34.1694V35.2577M10.8653 34.1694V35.2577" stroke="#595959" stroke-width="2.14443" stroke-linecap="square"/>
</svg>
