<svg width="58" height="55" viewBox="0 0 58 55" fill="none" xmlns="http://www.w3.org/2000/svg">
<path fill-rule="evenodd" clip-rule="evenodd" d="M0.174603 11.1256L7.31058 0.147217L14.4466 11.1256V54.9848H0.174603V11.1256Z" fill="#BD7575"/>
<path fill-rule="evenodd" clip-rule="evenodd" d="M28.7185 11.1256L35.8545 0.147217L42.9905 11.1256V54.9848H28.7185V11.1256Z" fill="#BD7575"/>
<path fill-rule="evenodd" clip-rule="evenodd" d="M14.4465 11.1256L21.5825 0.147217L28.7185 11.1256V54.9848H14.4465V11.1256Z" fill="#9C4D4D"/>
<path fill-rule="evenodd" clip-rule="evenodd" d="M42.9905 11.1256L50.1265 0.147217L57.2624 11.1256V54.9848H42.9905V11.1256Z" fill="#9C4D4D"/>
<path d="M1.27243 19.4025H56.1755" stroke="#ED9111" stroke-width="2.10786" stroke-linecap="square"/>
<path d="M1.27243 48.2854H56.1755" stroke="#ED9111" stroke-width="2.10786" stroke-linecap="square"/>
<path d="M7.31057 44.0065C8.82638 44.0065 10.0552 42.8091 10.0552 41.3321C10.0552 39.8551 8.82638 38.6578 7.31057 38.6578C5.79477 38.6578 4.56597 39.8551 4.56597 41.3321C4.56597 42.8091 5.79477 44.0065 7.31057 44.0065Z" fill="#D8D8D8"/>
<path d="M21.5826 44.0065C23.0984 44.0065 24.3272 42.8091 24.3272 41.3321C24.3272 39.8551 23.0984 38.6578 21.5826 38.6578C20.0668 38.6578 18.838 39.8551 18.838 41.3321C18.838 42.8091 20.0668 44.0065 21.5826 44.0065Z" fill="#D8D8D8"/>
<path d="M35.8545 44.0065C37.3703 44.0065 38.5991 42.8091 38.5991 41.3321C38.5991 39.8551 37.3703 38.6578 35.8545 38.6578C34.3387 38.6578 33.1099 39.8551 33.1099 41.3321C33.1099 42.8091 34.3387 44.0065 35.8545 44.0065Z" fill="#D8D8D8"/>
<path d="M50.1264 44.0065C51.6422 44.0065 52.871 42.8091 52.871 41.3321C52.871 39.8551 51.6422 38.6578 50.1264 38.6578C48.6106 38.6578 47.3818 39.8551 47.3818 41.3321C47.3818 42.8091 48.6106 44.0065 50.1264 44.0065Z" fill="#D8D8D8"/>
</svg>
